<svg width="800px" height="800px" viewBox="0 0 24 24" fill="none" xmlns="http://www.w3.org/2000/svg">
<path d="M14.5 9.5C14.5 10.3284 13.8284 11 13 11C12.1716 11 11.5 10.3284 11.5 9.5C11.5 8.67157 12.1716 8 13 8C13.8284 8 14.5 8.67157 14.5 9.5Z" fill="#1e293b"/>
<path fill-rule="evenodd" clip-rule="evenodd" d="M7 4C7 2.89543 7.89543 2 9 2H13C17.4183 2 21 5.58172 21 10V10.5C21 12.433 19.433 14 17.5 14H16.1762C16.8929 15.3286 17.1894 16.9234 16.852 18.5264C16.6373 19.5463 15.6558 20.2173 14.6186 20.0632C13.9234 19.9599 13.2982 19.5676 12.8935 19H17C17.5523 19 18 19.4477 18 20C18 20.5523 17.5523 21 17 21H7C6.44772 21 6 20.5523 6 20C6 19.4477 6.44772 19 7 19H7.20816C6.54583 17.9103 6.3013 16.6025 6.6125 15.3577C6.94539 14.0261 7.90089 12.9242 9.1724 12.3524C9.72145 12.1055 9.96788 11.4587 9.72099 10.9096C9.4741 10.3606 8.8273 10.1141 8.27824 10.361C6.37135 11.2185 4.93809 12.8715 4.43875 14.8688C3.97194 16.736 4.33875 18.6978 5.33234 20.3323C5.55622 20.7007 5.72758 21 5.99999 21.0001V22.0001H17C18.1046 22.0001 19 21.1046 19 20.0001V20C19.5523 20 20 19.5523 20 19C20 18.2327 19.5673 17.5645 18.932 17.2274C19.2941 15.5458 19.0494 13.7915 18.1724 12.3275C19.3242 11.6669 20 10.7486 20 10.5V10C20 6.13401 16.866 3 13 3H9C8.44772 3 8 3.44772 8 4V5H7V4ZM13 9.5C13 10.3284 13.6716 11 14.5 11C15.3284 11 16 10.3284 16 9.5C16 8.67157 15.3284 8 14.5 8C13.6716 8 13 8.67157 13 9.5Z" fill="#1e293b"/>
</svg>
